<mxfile host="app.diagrams.net" modified="2024-03-13T21:11:01.775Z" agent="Mozilla/5.0 (Windows NT 10.0; Win64; x64) AppleWebKit/537.36 (KHTML, like Gecko) Chrome/122.0.0.0 Safari/537.36 Edg/122.0.0.0" etag="N-HtbORQU7rNLc4_0kV_" version="24.0.6" type="device">
  <diagram name="Page-1" id="apQwY9KGU1bIJ35GcKSu">
    <mxGraphModel dx="2228" dy="920" grid="0" gridSize="10" guides="1" tooltips="1" connect="1" arrows="1" fold="1" page="0" pageScale="1" pageWidth="850" pageHeight="1100" background="#FFFFFF" math="0" shadow="0">
      <root>
        <mxCell id="0" />
        <mxCell id="1" parent="0" />
        <mxCell id="LZsVPGZa3EBswD9wB0Uj-3" value="" style="rounded=0;whiteSpace=wrap;html=1;strokeWidth=3;strokeColor=#2C99DD;fillColor=none;" parent="1" vertex="1">
          <mxGeometry x="331" y="110" width="1170" height="858.5" as="geometry" />
        </mxCell>
        <mxCell id="LZsVPGZa3EBswD9wB0Uj-112" style="edgeStyle=orthogonalEdgeStyle;shape=connector;rounded=0;orthogonalLoop=1;jettySize=auto;html=1;entryX=0.5;entryY=0;entryDx=0;entryDy=0;labelBackgroundColor=default;strokeColor=#b85450;strokeWidth=2;align=center;verticalAlign=middle;fontFamily=Helvetica;fontSize=11;fontColor=default;startArrow=none;startFill=0;endArrow=classic;fillColor=#f8cecc;" parent="1" source="LZsVPGZa3EBswD9wB0Uj-102" target="LZsVPGZa3EBswD9wB0Uj-45" edge="1">
          <mxGeometry relative="1" as="geometry" />
        </mxCell>
        <mxCell id="LZsVPGZa3EBswD9wB0Uj-9" value="" style="rounded=0;whiteSpace=wrap;html=1;strokeWidth=3;strokeColor=#2C99DD;fillColor=none;" parent="1" vertex="1">
          <mxGeometry x="476.43000000000006" y="150" width="854.57" height="720" as="geometry" />
        </mxCell>
        <mxCell id="LZsVPGZa3EBswD9wB0Uj-13" value="" style="whiteSpace=wrap;html=1;fillColor=none;dashed=1;strokeWidth=2;" parent="1" vertex="1">
          <mxGeometry x="516.43" y="190" width="774.57" height="640" as="geometry" />
        </mxCell>
        <mxCell id="LZsVPGZa3EBswD9wB0Uj-63" value="" style="whiteSpace=wrap;html=1;fillColor=#cce5ff;dashed=1;strokeWidth=2;fillStyle=solid;strokeColor=#36393d;" parent="1" vertex="1">
          <mxGeometry x="536.43" y="340" width="721.57" height="460" as="geometry" />
        </mxCell>
        <mxCell id="LZsVPGZa3EBswD9wB0Uj-4" value="Azure KPMG OPCH" style="verticalLabelPosition=middle;html=1;verticalAlign=middle;align=left;strokeColor=none;fillColor=#00BEF2;shape=mxgraph.azure.cloud;labelPosition=right;" parent="1" vertex="1">
          <mxGeometry x="336.03000000000003" y="112" width="37" height="27" as="geometry" />
        </mxCell>
        <mxCell id="LZsVPGZa3EBswD9wB0Uj-11" value="NZ-SUB-CH-LHS-{ENV}" style="image;sketch=0;aspect=fixed;html=1;points=[];align=left;fontSize=12;image=img/lib/mscae/Key.svg;labelPosition=right;verticalLabelPosition=middle;verticalAlign=middle;" parent="1" vertex="1">
          <mxGeometry x="486.43000000000006" y="160" width="18.6" height="30" as="geometry" />
        </mxCell>
        <mxCell id="LZsVPGZa3EBswD9wB0Uj-12" value="NZ-SYD-LHS-{ENV}-ARG-WEBT" style="image;aspect=fixed;html=1;points=[];align=left;fontSize=12;image=img/lib/azure2/general/Resource_Groups.svg;labelPosition=right;verticalLabelPosition=middle;verticalAlign=middle;" parent="1" vertex="1">
          <mxGeometry x="526.4300000000001" y="200" width="31.88" height="30" as="geometry" />
        </mxCell>
        <mxCell id="LZsVPGZa3EBswD9wB0Uj-15" value="Browser" style="sketch=0;pointerEvents=1;shadow=0;dashed=0;html=1;strokeColor=none;fillColor=#434445;aspect=fixed;labelPosition=center;verticalLabelPosition=bottom;verticalAlign=top;align=center;outlineConnect=0;shape=mxgraph.vvd.web_browser;" parent="1" vertex="1">
          <mxGeometry x="109.78" y="665.1199999999999" width="50" height="35.5" as="geometry" />
        </mxCell>
        <mxCell id="LZsVPGZa3EBswD9wB0Uj-62" style="edgeStyle=orthogonalEdgeStyle;rounded=0;orthogonalLoop=1;jettySize=auto;html=1;startArrow=none;startFill=0;strokeWidth=2;fillColor=#d5e8d4;strokeColor=#82b366;" parent="1" source="LZsVPGZa3EBswD9wB0Uj-19" target="LZsVPGZa3EBswD9wB0Uj-20" edge="1">
          <mxGeometry relative="1" as="geometry" />
        </mxCell>
        <mxCell id="LZsVPGZa3EBswD9wB0Uj-19" value="" style="shape=image;verticalLabelPosition=bottom;labelBackgroundColor=default;verticalAlign=top;aspect=fixed;imageAspect=0;image=data:image/svg+xml,PHN2ZyB4bWxuczp4bGluaz0iaHR0cDovL3d3dy53My5vcmcvMTk5OS94bGluayIgeG1sbnM9Imh0dHA6Ly93d3cudzMub3JnLzIwMDAvc3ZnIiB4bWw6c3BhY2U9InByZXNlcnZlIiBzdHlsZT0iZW5hYmxlLWJhY2tncm91bmQ6bmV3IDAgMCAzNDggNjU7IiB2aWV3Qm94PSIwIDAgMzQ4IDY1IiB5PSIwcHgiIHg9IjBweCIgdmVyc2lvbj0iMS4xIj4mI3hhOwk8c3R5bGUgdHlwZT0idGV4dC9jc3MiPiYjeGE7CQkuc3Qwe2ZpbGw6IzE0MTQxNDt9JiN4YTsJCS5zdDF7ZmlsbDojRkE1ODJEO30mI3hhOwk8L3N0eWxlPiYjeGE7CTxnIGNsYXNzPSJzdDAiIGlkPSJ0cmFkZW1hcmsiPiYjeGE7CQk8cGF0aCBkPSJNMzQ0LjgsMTQuNHYtMC4yYzAtMS0wLjgtMS43LTIuMS0xLjdoLTIuM3Y1LjRoMS4xdi0xLjhoMS4ybDAuOSwxLjhoMS4ybC0xLjEtMi4xJiMxMDsmIzk7JiM5OyYjOTtDMzQ0LjQsMTUuNiwzNDQuOCwxNSwzNDQuOCwxNC40eiBNMzQxLjUsMTMuNWgxLjJjMC43LDAsMSwwLjIsMSwwLjh2MC4xYzAsMC41LTAuMywwLjgtMSwwLjhoLTEuMlYxMy41eiIvPiYjeGE7CQk8cGF0aCBkPSJNMzQyLjUsOS43Yy0zLjIsMC01LjUsMi40LTUuNSw1LjVzMi40LDUuNSw1LjUsNS41YzMuMSwwLDUuNS0yLjQsNS41LTUuNVMzNDUuNiw5LjcsMzQyLjUsOS43eiBNMzQyLjUsMjAmIzEwOyYjOTsmIzk7JiM5O2MtMi43LDAtNC43LTItNC43LTQuOHMyLTQuOCw0LjctNC44YzIuNywwLDQuNywyLDQuNyw0LjhTMzQ1LjIsMjAsMzQyLjUsMjB6Ii8+JiN4YTsJPC9nPiYjeGE7CTxnIGNsYXNzPSJzdDAiIGlkPSJuZXR3b3JrcyI+JiN4YTsJCTxwYXRoIGQ9Ik0zMjYuNiw2NC4ydi0yLjNoMGMxLjQsMC43LDIuOCwxLjEsNCwxLjFjMC45LDAsMS40LTAuMiwxLjQtMC42YzAtMC40LTAuMy0wLjUtMi4xLTAuOCYjMTA7JiM5OyYjOTsmIzk7Yy0yLTAuMy0zLjMtMC45LTMuMy0yLjZjMC0xLjYsMS40LTIuOCw0LjEtMi44YzEuMSwwLDIuMiwwLjIsMy4zLDAuN3YyLjNsMCwwYy0xLTAuNi0yLjMtMC45LTMuNC0wLjljLTEsMC0xLjMsMC4yLTEuMywwLjYmIzEwOyYjOTsmIzk7JiM5O2MwLDAuNSwwLjYsMC41LDIuMSwwLjhjMiwwLjMsMy4zLDAuOSwzLjMsMi43YzAsMS40LTEsMi44LTQsMi44QzMyOSw2NSwzMjcuOSw2NC43LDMyNi42LDY0LjJ6Ii8+JiN4YTsJCTxwYXRoIGQ9Ik0zMTUuNyw1Ni4zaDIuNXYzLjFoMWwyLjUtMy4xaDIuOGwwLDBsLTMuMiw0bDMuNCw0LjRsMCwwaC0yLjlsLTIuNS0zLjJoLTF2My4yaC0yLjVWNTYuM3oiLz4mI3hhOwkJPHBhdGggZD0iTTMwNC4yLDU2LjNoNC45YzIuMiwwLDMuMywxLjEsMy4zLDNjMCwxLjMtMC42LDIuMy0xLjYsMi43bDIsMi43aC0yLjlsLTEuNi0yLjJoLTEuN3YyLjJoLTIuNVY1Ni4zeiYjMTA7JiM5OyYjOTsmIzk7IE0zMDguNyw2MC42YzAuOCwwLDEuMS0wLjUsMS4xLTEuMWMwLTAuNi0wLjMtMS4xLTEuMS0xLjFoLTIuMXYyLjJIMzA4Ljd6Ii8+JiN4YTsJCTxwYXRoIGQ9Ik0yOTEuOCw2MC41YzAtMi43LDEuOS00LjUsNC44LTQuNWMyLjksMCw0LjgsMS43LDQuOCw0LjVjMCwyLjctMS45LDQuNS00LjgsNC41JiMxMDsmIzk7JiM5OyYjOTtDMjkzLjcsNjUsMjkxLjgsNjMuMywyOTEuOCw2MC41eiBNMjk4LjksNjAuNWMwLTEuNS0wLjgtMi4zLTIuMy0yLjNjLTEuNSwwLTIuMywwLjktMi4zLDIuM2MwLDEuNSwwLjgsMi4zLDIuMywyLjMmIzEwOyYjOTsmIzk7JiM5O0MyOTguMSw2Mi45LDI5OC45LDYyLDI5OC45LDYwLjV6Ii8+JiN4YTsJCTxwYXRoIGQ9Ik0yNzUuOCw1Ni4zaDIuN2wxLjQsNS44aDAuMWwxLjgtNS44aDIuNWwxLjcsNS44aDAuMWwxLjMtNS44aDIuNmwtMi4yLDguNGgtMy4zbC0xLjUtNS4xaC0wLjFsLTEuNiw1LjFIMjc4JiMxMDsmIzk7JiM5OyYjOTtMMjc1LjgsNTYuM3oiLz4mI3hhOwkJPHBhdGggZD0iTTI2OC4zLDU4LjVoLTIuOWwwLjEtMi4yaDguMmwwLjEsMi4yaC0yLjl2Ni4yaC0yLjVWNTguNXoiLz4mI3hhOwkJPHBhdGggZD0iTTI1NS42LDU2LjNoNy4zbDAuMSwyaC00Ljl2MS4yaDMuOXYxLjloLTMuOXYxLjNoNS4xbC0wLjEsMmgtNy41VjU2LjN6Ii8+JiN4YTsJCTxwYXRoIGQ9Ik0yNDMuNyw1Ni4zaDIuNmwzLjYsNC44aDB2LTQuOGgyLjR2OC40aC0yLjVsLTMuNy00LjloMHY0LjloLTIuNFY1Ni4zeiIvPiYjeGE7CTwvZz4mI3hhOwk8ZyBjbGFzcz0ic3QwIiBpZD0icGFsb2FsdG8iPiYjeGE7CQk8cGF0aCBkPSJNMzE3LjQsMTEuN2MtMTAuNCwwLTE3LjgsNy4yLTE3LjgsMTcuMnYxLjJjMCwxMCw3LjQsMTcuMiwxNy44LDE3LjJjMTAuNCwwLDE3LjgtNy4yLDE3LjgtMTcuMnYtMS4yJiMxMDsmIzk7JiM5OyYjOTtDMzM1LjIsMTguOSwzMjcuOCwxMS43LDMxNy40LDExLjd6IE0zMjQuNywyOS44YzAsNS4zLTIuNyw5LTcuMyw5Yy00LjYsMC03LjMtMy44LTcuMy05di0wLjZjMC01LjMsMi43LTksNy4zLTkmIzEwOyYjOTsmIzk7JiM5O2M0LjYsMCw3LjMsMy44LDcuMyw5VjI5Ljh6Ii8+JiN4YTsJCTxwYXRoIGQ9Ik0yODkuNiwzOC44Yy0zLDAtNC4xLTEuNS00LjEtNC42VjIwLjFoMTJ2LTcuOWgtMTJWNC40bC0xMC4yLDEuNXYyOS4zYzAsOCw0LjEsMTIuMSwxMi4zLDEyLjEmIzEwOyYjOTsmIzk7JiM5O2MzLjYsMCw3LjktMS4xLDExLjQtMy4xbC0yLjktNy4yQzI5NCwzOC4xLDI5MS4xLDM4LjgsMjg5LjYsMzguOHoiLz4mI3hhOwkJPHBhdGggZD0iTTI2OS41LDBoLTEwLjJ2NDYuN2gxMC4yVjB6Ii8+JiN4YTsJCTxwYXRoIGQ9Ik0yMzcuOCwxMS43Yy00LjUsMC05LjIsMS4yLTE0LjksNC4zbDMuMiw3LjljNS0yLjgsOS4yLTQsMTIuMi00YzMuNCwwLDUsMS4zLDUsM1YyM2MwLDEuMi0wLjksMS44LTMuMiwyJiMxMDsmIzk7JiM5OyYjOTtsLTQsMC40Yy05LjksMS4xLTE0LDUuNC0xNCwxMS4zdjAuNGMwLDUuNyw0LjcsMTAuMSwxMS4zLDEwLjFjNC4zLDAsOC4xLTEuOCwxMC40LTUuMWwwLjcsNC41aDlWMjYuMyYjMTA7JiM5OyYjOTsmIzk7QzI1My40LDE2LjcsMjQ3LjksMTEuNywyMzcuOCwxMS43eiBNMjM2LjksMzkuNWMtMy4zLDAtNC45LTEuMy00LjktMy4zdi0wLjFjMC0xLjgsMS0zLDQuNi0zLjZsMS42LTAuMmMyLjMtMC4zLDMuNy0wLjcsNS0xLjV2Mi42JiMxMDsmIzk7JiM5OyYjOTtDMjQzLjIsMzcuMywyNDAuOCwzOS41LDIzNi45LDM5LjV6Ii8+JiN4YTsJCTxwYXRoIGQ9Ik0yMDEuOSwxMS43Yy0xMC40LDAtMTcuOCw3LjItMTcuOCwxNy4ydjEuMmMwLDEwLDcuNCwxNy4yLDE3LjgsMTcuMnMxNy44LTcuMiwxNy44LTE3LjJ2LTEuMiYjMTA7JiM5OyYjOTsmIzk7QzIxOS43LDE4LjksMjEyLjMsMTEuNywyMDEuOSwxMS43eiBNMjA5LjIsMjkuOGMwLDUuMy0yLjcsOS03LjMsOWMtNC42LDAtNy4zLTMuOC03LjMtOXYtMC42YzAtNS4zLDIuNy05LDcuMy05JiMxMDsmIzk7JiM5OyYjOTtjNC42LDAsNy4zLDMuOCw3LjMsOVYyOS44eiIvPiYjeGE7CQk8cGF0aCBkPSJNMTc5LjUsMGgtMTAuMnY0Ni43aDEwLjJWMHoiLz4mI3hhOwkJPHBhdGggZD0iTTE0Ny45LDExLjdjLTQuNSwwLTkuMiwxLjItMTQuOSw0LjNsMy4yLDcuOWM1LTIuOCw5LjItNCwxMi4yLTRjMy40LDAsNSwxLjMsNSwzVjIzYzAsMS4yLTAuOSwxLjgtMy4yLDImIzEwOyYjOTsmIzk7JiM5O2wtNCwwLjRjLTkuOSwxLjEtMTQsNS40LTE0LDExLjN2MC40YzAsNS43LDQuNywxMC4xLDExLjMsMTAuMWM0LjMsMCw4LjEtMS44LDEwLjQtNS4xbDAuNyw0LjVoOVYyNi4zJiMxMDsmIzk7JiM5OyYjOTtDMTYzLjUsMTYuNywxNTcuOSwxMS43LDE0Ny45LDExLjd6IE0xNDcsMzkuNWMtMy4zLDAtNC45LTEuMy00LjktMy4zdi0wLjFjMC0xLjgsMS0zLDQuNi0zLjZsMS42LTAuMmMyLjMtMC4zLDMuNy0wLjcsNS0xLjV2Mi42JiMxMDsmIzk7JiM5OyYjOTtDMTUzLjMsMzcuMywxNTAuOCwzOS41LDE0NywzOS41eiIvPiYjeGE7CQk8cGF0aCBkPSJNMTE0LjksMTEuN2MtNC42LDAtOC40LDIuMS0xMC40LDUuM2wtMC44LTQuN2gtOXY0Ni4xaDEwLjJ2LTE2YzEuOSwzLDUuNiw0LjksMTAsNC45JiMxMDsmIzk7JiM5OyYjOTtjOC4yLDAsMTQuOC03LjIsMTQuOC0xNy4ydi0xLjJDMTI5LjgsMTguOSwxMjMuMSwxMS43LDExNC45LDExLjd6IE0xMTkuMiwyOS44YzAsNS4zLTIuNyw5LTcuMyw5Yy00LjYsMC03LjMtMy44LTcuMy05di0wLjYmIzEwOyYjOTsmIzk7JiM5O2MwLTUuMywyLjctOSw3LjMtOWM0LjYsMCw3LjMsMy44LDcuMyw5VjI5Ljh6Ii8+JiN4YTsJPC9nPiYjeGE7CTxnIGNsYXNzPSJzdDEiIGlkPSJsb2dvIj4mI3hhOwkJPHBhdGggZD0iTTYzLjMsMTEuNUw1MS44LDBMNDAuMywxMS41bDUuNyw1LjdMMTcuMiw0Ni4xbDExLjUsMTEuNWwxMS41LTExLjVsLTUuNy01LjdMNjMuMywxMS41eiIvPiYjeGE7CQk8cGF0aCBkPSJNMjguOCwwTDAsMjguOGwxMS41LDExLjVsMjguOC0yOC44TDI4LjgsMHoiLz4mI3hhOwkJPHBhdGggZD0iTTY5LjEsMTcuMkw0MC4yLDQ2LjFsMTEuNSwxMS41bDI4LjgtMjguOEw2OS4xLDE3LjJ6Ii8+JiN4YTsJPC9nPiYjeGE7PC9zdmc+;" parent="1" vertex="1">
          <mxGeometry x="341" y="507" width="133.85" height="25" as="geometry" />
        </mxCell>
        <mxCell id="LZsVPGZa3EBswD9wB0Uj-20" value="UI Storage&lt;br&gt;Frontend" style="image;sketch=0;aspect=fixed;html=1;points=[];align=center;fontSize=12;image=img/lib/mscae/Blog_Storage.svg;labelBackgroundColor=none;" parent="1" vertex="1">
          <mxGeometry x="563.0000000000001" y="587" width="46.2" height="42.5" as="geometry" />
        </mxCell>
        <mxCell id="LZsVPGZa3EBswD9wB0Uj-22" value="Cosmos for Postgres&lt;br&gt;Data Storage" style="image;aspect=fixed;html=1;points=[];align=center;fontSize=12;image=img/lib/azure2/databases/Azure_Cosmos_DB.svg;labelBackgroundColor=none;" parent="1" vertex="1">
          <mxGeometry x="1143" y="564.75" width="61.5" height="61.5" as="geometry" />
        </mxCell>
        <mxCell id="LZsVPGZa3EBswD9wB0Uj-31" value="CICD Agent&lt;br&gt;KPMG VM" style="image;aspect=fixed;html=1;points=[];align=center;fontSize=12;image=img/lib/azure2/compute/Automanaged_VM.svg;" parent="1" vertex="1">
          <mxGeometry x="1386.43" y="373.5" width="68" height="62" as="geometry" />
        </mxCell>
        <mxCell id="LZsVPGZa3EBswD9wB0Uj-36" value="Container Registry" style="image;aspect=fixed;html=1;points=[];align=center;fontSize=12;image=img/lib/azure2/containers/Container_Registries.svg;labelBackgroundColor=none;" parent="1" vertex="1">
          <mxGeometry x="1145.88" y="678" width="55.74" height="50" as="geometry" />
        </mxCell>
        <mxCell id="LZsVPGZa3EBswD9wB0Uj-113" style="edgeStyle=orthogonalEdgeStyle;shape=connector;rounded=0;orthogonalLoop=1;jettySize=auto;html=1;labelBackgroundColor=default;strokeColor=#82b366;strokeWidth=2;align=center;verticalAlign=middle;fontFamily=Helvetica;fontSize=11;fontColor=default;startArrow=none;startFill=0;endArrow=classic;fillColor=#d5e8d4;" parent="1" source="LZsVPGZa3EBswD9wB0Uj-45" target="LZsVPGZa3EBswD9wB0Uj-31" edge="1">
          <mxGeometry relative="1" as="geometry" />
        </mxCell>
        <mxCell id="vsX6TZBhQUKZtYb4nTTA-19" value="17" style="edgeLabel;html=1;align=center;verticalAlign=middle;resizable=0;points=[];fontSize=11;fontFamily=Helvetica;fontColor=default;" parent="LZsVPGZa3EBswD9wB0Uj-113" vertex="1" connectable="0">
          <mxGeometry x="0.0341" y="-4" relative="1" as="geometry">
            <mxPoint as="offset" />
          </mxGeometry>
        </mxCell>
        <mxCell id="LZsVPGZa3EBswD9wB0Uj-45" value="" style="shape=image;verticalLabelPosition=bottom;labelBackgroundColor=default;verticalAlign=top;aspect=fixed;imageAspect=0;image=data:image/svg+xml,PHN2ZyB4bWxuczp4bGluaz0iaHR0cDovL3d3dy53My5vcmcvMTk5OS94bGluayIgeG1sbnM9Imh0dHA6Ly93d3cudzMub3JnLzIwMDAvc3ZnIiB4bWw6c3BhY2U9InByZXNlcnZlIiBzdHlsZT0iZW5hYmxlLWJhY2tncm91bmQ6bmV3IDAgMCAzNDggNjU7IiB2aWV3Qm94PSIwIDAgMzQ4IDY1IiB5PSIwcHgiIHg9IjBweCIgdmVyc2lvbj0iMS4xIj4mI3hhOwk8c3R5bGUgdHlwZT0idGV4dC9jc3MiPiYjeGE7CQkuc3Qwe2ZpbGw6IzE0MTQxNDt9JiN4YTsJCS5zdDF7ZmlsbDojRkE1ODJEO30mI3hhOwk8L3N0eWxlPiYjeGE7CTxnIGNsYXNzPSJzdDAiIGlkPSJ0cmFkZW1hcmsiPiYjeGE7CQk8cGF0aCBkPSJNMzQ0LjgsMTQuNHYtMC4yYzAtMS0wLjgtMS43LTIuMS0xLjdoLTIuM3Y1LjRoMS4xdi0xLjhoMS4ybDAuOSwxLjhoMS4ybC0xLjEtMi4xJiMxMDsmIzk7JiM5OyYjOTtDMzQ0LjQsMTUuNiwzNDQuOCwxNSwzNDQuOCwxNC40eiBNMzQxLjUsMTMuNWgxLjJjMC43LDAsMSwwLjIsMSwwLjh2MC4xYzAsMC41LTAuMywwLjgtMSwwLjhoLTEuMlYxMy41eiIvPiYjeGE7CQk8cGF0aCBkPSJNMzQyLjUsOS43Yy0zLjIsMC01LjUsMi40LTUuNSw1LjVzMi40LDUuNSw1LjUsNS41YzMuMSwwLDUuNS0yLjQsNS41LTUuNVMzNDUuNiw5LjcsMzQyLjUsOS43eiBNMzQyLjUsMjAmIzEwOyYjOTsmIzk7JiM5O2MtMi43LDAtNC43LTItNC43LTQuOHMyLTQuOCw0LjctNC44YzIuNywwLDQuNywyLDQuNyw0LjhTMzQ1LjIsMjAsMzQyLjUsMjB6Ii8+JiN4YTsJPC9nPiYjeGE7CTxnIGNsYXNzPSJzdDAiIGlkPSJuZXR3b3JrcyI+JiN4YTsJCTxwYXRoIGQ9Ik0zMjYuNiw2NC4ydi0yLjNoMGMxLjQsMC43LDIuOCwxLjEsNCwxLjFjMC45LDAsMS40LTAuMiwxLjQtMC42YzAtMC40LTAuMy0wLjUtMi4xLTAuOCYjMTA7JiM5OyYjOTsmIzk7Yy0yLTAuMy0zLjMtMC45LTMuMy0yLjZjMC0xLjYsMS40LTIuOCw0LjEtMi44YzEuMSwwLDIuMiwwLjIsMy4zLDAuN3YyLjNsMCwwYy0xLTAuNi0yLjMtMC45LTMuNC0wLjljLTEsMC0xLjMsMC4yLTEuMywwLjYmIzEwOyYjOTsmIzk7JiM5O2MwLDAuNSwwLjYsMC41LDIuMSwwLjhjMiwwLjMsMy4zLDAuOSwzLjMsMi43YzAsMS40LTEsMi44LTQsMi44QzMyOSw2NSwzMjcuOSw2NC43LDMyNi42LDY0LjJ6Ii8+JiN4YTsJCTxwYXRoIGQ9Ik0zMTUuNyw1Ni4zaDIuNXYzLjFoMWwyLjUtMy4xaDIuOGwwLDBsLTMuMiw0bDMuNCw0LjRsMCwwaC0yLjlsLTIuNS0zLjJoLTF2My4yaC0yLjVWNTYuM3oiLz4mI3hhOwkJPHBhdGggZD0iTTMwNC4yLDU2LjNoNC45YzIuMiwwLDMuMywxLjEsMy4zLDNjMCwxLjMtMC42LDIuMy0xLjYsMi43bDIsMi43aC0yLjlsLTEuNi0yLjJoLTEuN3YyLjJoLTIuNVY1Ni4zeiYjMTA7JiM5OyYjOTsmIzk7IE0zMDguNyw2MC42YzAuOCwwLDEuMS0wLjUsMS4xLTEuMWMwLTAuNi0wLjMtMS4xLTEuMS0xLjFoLTIuMXYyLjJIMzA4Ljd6Ii8+JiN4YTsJCTxwYXRoIGQ9Ik0yOTEuOCw2MC41YzAtMi43LDEuOS00LjUsNC44LTQuNWMyLjksMCw0LjgsMS43LDQuOCw0LjVjMCwyLjctMS45LDQuNS00LjgsNC41JiMxMDsmIzk7JiM5OyYjOTtDMjkzLjcsNjUsMjkxLjgsNjMuMywyOTEuOCw2MC41eiBNMjk4LjksNjAuNWMwLTEuNS0wLjgtMi4zLTIuMy0yLjNjLTEuNSwwLTIuMywwLjktMi4zLDIuM2MwLDEuNSwwLjgsMi4zLDIuMywyLjMmIzEwOyYjOTsmIzk7JiM5O0MyOTguMSw2Mi45LDI5OC45LDYyLDI5OC45LDYwLjV6Ii8+JiN4YTsJCTxwYXRoIGQ9Ik0yNzUuOCw1Ni4zaDIuN2wxLjQsNS44aDAuMWwxLjgtNS44aDIuNWwxLjcsNS44aDAuMWwxLjMtNS44aDIuNmwtMi4yLDguNGgtMy4zbC0xLjUtNS4xaC0wLjFsLTEuNiw1LjFIMjc4JiMxMDsmIzk7JiM5OyYjOTtMMjc1LjgsNTYuM3oiLz4mI3hhOwkJPHBhdGggZD0iTTI2OC4zLDU4LjVoLTIuOWwwLjEtMi4yaDguMmwwLjEsMi4yaC0yLjl2Ni4yaC0yLjVWNTguNXoiLz4mI3hhOwkJPHBhdGggZD0iTTI1NS42LDU2LjNoNy4zbDAuMSwyaC00Ljl2MS4yaDMuOXYxLjloLTMuOXYxLjNoNS4xbC0wLjEsMmgtNy41VjU2LjN6Ii8+JiN4YTsJCTxwYXRoIGQ9Ik0yNDMuNyw1Ni4zaDIuNmwzLjYsNC44aDB2LTQuOGgyLjR2OC40aC0yLjVsLTMuNy00LjloMHY0LjloLTIuNFY1Ni4zeiIvPiYjeGE7CTwvZz4mI3hhOwk8ZyBjbGFzcz0ic3QwIiBpZD0icGFsb2FsdG8iPiYjeGE7CQk8cGF0aCBkPSJNMzE3LjQsMTEuN2MtMTAuNCwwLTE3LjgsNy4yLTE3LjgsMTcuMnYxLjJjMCwxMCw3LjQsMTcuMiwxNy44LDE3LjJjMTAuNCwwLDE3LjgtNy4yLDE3LjgtMTcuMnYtMS4yJiMxMDsmIzk7JiM5OyYjOTtDMzM1LjIsMTguOSwzMjcuOCwxMS43LDMxNy40LDExLjd6IE0zMjQuNywyOS44YzAsNS4zLTIuNyw5LTcuMyw5Yy00LjYsMC03LjMtMy44LTcuMy05di0wLjZjMC01LjMsMi43LTksNy4zLTkmIzEwOyYjOTsmIzk7JiM5O2M0LjYsMCw3LjMsMy44LDcuMyw5VjI5Ljh6Ii8+JiN4YTsJCTxwYXRoIGQ9Ik0yODkuNiwzOC44Yy0zLDAtNC4xLTEuNS00LjEtNC42VjIwLjFoMTJ2LTcuOWgtMTJWNC40bC0xMC4yLDEuNXYyOS4zYzAsOCw0LjEsMTIuMSwxMi4zLDEyLjEmIzEwOyYjOTsmIzk7JiM5O2MzLjYsMCw3LjktMS4xLDExLjQtMy4xbC0yLjktNy4yQzI5NCwzOC4xLDI5MS4xLDM4LjgsMjg5LjYsMzguOHoiLz4mI3hhOwkJPHBhdGggZD0iTTI2OS41LDBoLTEwLjJ2NDYuN2gxMC4yVjB6Ii8+JiN4YTsJCTxwYXRoIGQ9Ik0yMzcuOCwxMS43Yy00LjUsMC05LjIsMS4yLTE0LjksNC4zbDMuMiw3LjljNS0yLjgsOS4yLTQsMTIuMi00YzMuNCwwLDUsMS4zLDUsM1YyM2MwLDEuMi0wLjksMS44LTMuMiwyJiMxMDsmIzk7JiM5OyYjOTtsLTQsMC40Yy05LjksMS4xLTE0LDUuNC0xNCwxMS4zdjAuNGMwLDUuNyw0LjcsMTAuMSwxMS4zLDEwLjFjNC4zLDAsOC4xLTEuOCwxMC40LTUuMWwwLjcsNC41aDlWMjYuMyYjMTA7JiM5OyYjOTsmIzk7QzI1My40LDE2LjcsMjQ3LjksMTEuNywyMzcuOCwxMS43eiBNMjM2LjksMzkuNWMtMy4zLDAtNC45LTEuMy00LjktMy4zdi0wLjFjMC0xLjgsMS0zLDQuNi0zLjZsMS42LTAuMmMyLjMtMC4zLDMuNy0wLjcsNS0xLjV2Mi42JiMxMDsmIzk7JiM5OyYjOTtDMjQzLjIsMzcuMywyNDAuOCwzOS41LDIzNi45LDM5LjV6Ii8+JiN4YTsJCTxwYXRoIGQ9Ik0yMDEuOSwxMS43Yy0xMC40LDAtMTcuOCw3LjItMTcuOCwxNy4ydjEuMmMwLDEwLDcuNCwxNy4yLDE3LjgsMTcuMnMxNy44LTcuMiwxNy44LTE3LjJ2LTEuMiYjMTA7JiM5OyYjOTsmIzk7QzIxOS43LDE4LjksMjEyLjMsMTEuNywyMDEuOSwxMS43eiBNMjA5LjIsMjkuOGMwLDUuMy0yLjcsOS03LjMsOWMtNC42LDAtNy4zLTMuOC03LjMtOXYtMC42YzAtNS4zLDIuNy05LDcuMy05JiMxMDsmIzk7JiM5OyYjOTtjNC42LDAsNy4zLDMuOCw3LjMsOVYyOS44eiIvPiYjeGE7CQk8cGF0aCBkPSJNMTc5LjUsMGgtMTAuMnY0Ni43aDEwLjJWMHoiLz4mI3hhOwkJPHBhdGggZD0iTTE0Ny45LDExLjdjLTQuNSwwLTkuMiwxLjItMTQuOSw0LjNsMy4yLDcuOWM1LTIuOCw5LjItNCwxMi4yLTRjMy40LDAsNSwxLjMsNSwzVjIzYzAsMS4yLTAuOSwxLjgtMy4yLDImIzEwOyYjOTsmIzk7JiM5O2wtNCwwLjRjLTkuOSwxLjEtMTQsNS40LTE0LDExLjN2MC40YzAsNS43LDQuNywxMC4xLDExLjMsMTAuMWM0LjMsMCw4LjEtMS44LDEwLjQtNS4xbDAuNyw0LjVoOVYyNi4zJiMxMDsmIzk7JiM5OyYjOTtDMTYzLjUsMTYuNywxNTcuOSwxMS43LDE0Ny45LDExLjd6IE0xNDcsMzkuNWMtMy4zLDAtNC45LTEuMy00LjktMy4zdi0wLjFjMC0xLjgsMS0zLDQuNi0zLjZsMS42LTAuMmMyLjMtMC4zLDMuNy0wLjcsNS0xLjV2Mi42JiMxMDsmIzk7JiM5OyYjOTtDMTUzLjMsMzcuMywxNTAuOCwzOS41LDE0NywzOS41eiIvPiYjeGE7CQk8cGF0aCBkPSJNMTE0LjksMTEuN2MtNC42LDAtOC40LDIuMS0xMC40LDUuM2wtMC44LTQuN2gtOXY0Ni4xaDEwLjJ2LTE2YzEuOSwzLDUuNiw0LjksMTAsNC45JiMxMDsmIzk7JiM5OyYjOTtjOC4yLDAsMTQuOC03LjIsMTQuOC0xNy4ydi0xLjJDMTI5LjgsMTguOSwxMjMuMSwxMS43LDExNC45LDExLjd6IE0xMTkuMiwyOS44YzAsNS4zLTIuNyw5LTcuMyw5Yy00LjYsMC03LjMtMy44LTcuMy05di0wLjYmIzEwOyYjOTsmIzk7JiM5O2MwLTUuMywyLjctOSw3LjMtOWM0LjYsMCw3LjMsMy44LDcuMyw5VjI5Ljh6Ii8+JiN4YTsJPC9nPiYjeGE7CTxnIGNsYXNzPSJzdDEiIGlkPSJsb2dvIj4mI3hhOwkJPHBhdGggZD0iTTYzLjMsMTEuNUw1MS44LDBMNDAuMywxMS41bDUuNyw1LjdMMTcuMiw0Ni4xbDExLjUsMTEuNWwxMS41LTExLjVsLTUuNy01LjdMNjMuMywxMS41eiIvPiYjeGE7CQk8cGF0aCBkPSJNMjguOCwwTDAsMjguOGwxMS41LDExLjVsMjguOC0yOC44TDI4LjgsMHoiLz4mI3hhOwkJPHBhdGggZD0iTTY5LjEsMTcuMkw0MC4yLDQ2LjFsMTEuNSwxMS41bDI4LjgtMjguOEw2OS4xLDE3LjJ6Ii8+JiN4YTsJPC9nPiYjeGE7PC9zdmc+;" parent="1" vertex="1">
          <mxGeometry x="1353.51" y="240" width="133.85" height="25" as="geometry" />
        </mxCell>
        <mxCell id="LZsVPGZa3EBswD9wB0Uj-57" style="edgeStyle=orthogonalEdgeStyle;rounded=0;orthogonalLoop=1;jettySize=auto;html=1;strokeWidth=2;fillColor=#d5e8d4;strokeColor=#82b366;" parent="1" source="LZsVPGZa3EBswD9wB0Uj-47" target="LZsVPGZa3EBswD9wB0Uj-15" edge="1">
          <mxGeometry relative="1" as="geometry" />
        </mxCell>
        <mxCell id="vsX6TZBhQUKZtYb4nTTA-1" value="1" style="edgeLabel;html=1;align=center;verticalAlign=middle;resizable=0;points=[];" parent="LZsVPGZa3EBswD9wB0Uj-57" vertex="1" connectable="0">
          <mxGeometry x="-0.1718" relative="1" as="geometry">
            <mxPoint as="offset" />
          </mxGeometry>
        </mxCell>
        <mxCell id="LZsVPGZa3EBswD9wB0Uj-47" value="KPMG User" style="image;aspect=fixed;perimeter=ellipsePerimeter;html=1;align=center;shadow=0;dashed=0;spacingTop=3;image=img/lib/active_directory/user_accounts.svg;" parent="1" vertex="1">
          <mxGeometry x="14" y="658.7399999999999" width="50" height="48.5" as="geometry" />
        </mxCell>
        <mxCell id="LZsVPGZa3EBswD9wB0Uj-49" value="Azure B2C" style="image;sketch=0;aspect=fixed;html=1;points=[];align=center;fontSize=12;image=img/lib/mscae/Azure_AD_B2C.svg;" parent="1" vertex="1">
          <mxGeometry x="556.4300000000001" y="240" width="50" height="46" as="geometry" />
        </mxCell>
        <mxCell id="LZsVPGZa3EBswD9wB0Uj-42" value="NZ-SYD-LHS-{ENV}-VNT" style="image;aspect=fixed;html=1;points=[];align=left;fontSize=12;image=img/lib/azure2/networking/Virtual_Networks.svg;labelBackgroundColor=none;labelPosition=right;verticalLabelPosition=middle;verticalAlign=middle;" parent="1" vertex="1">
          <mxGeometry x="540.4300000000001" y="347.8299999999999" width="37.14" height="22.17" as="geometry" />
        </mxCell>
        <mxCell id="LZsVPGZa3EBswD9wB0Uj-92" value="" style="group" parent="1" vertex="1" connectable="0">
          <mxGeometry x="916.93" y="195" width="275" height="140" as="geometry" />
        </mxCell>
        <mxCell id="LZsVPGZa3EBswD9wB0Uj-84" value="&lt;font style=&quot;font-size: 12px;&quot;&gt;&amp;nbsp;Admin Resources&lt;/font&gt;" style="html=1;overflow=block;blockSpacing=1;whiteSpace=wrap;container=0;pointerEvents=0;collapsible=0;recursiveResize=0;fontSize=23.3;fontColor=#4c535d;align=left;spacing=0;verticalAlign=top;strokeColor=#000000;strokeOpacity=100;fillOpacity=100;rounded=1;absoluteArcSize=1;arcSize=9;fillColor=#f2f3f5;strokeWidth=1;lucidId=-GtH4bNdyVb1;" parent="LZsVPGZa3EBswD9wB0Uj-92" vertex="1">
          <mxGeometry width="275" height="140" as="geometry" />
        </mxCell>
        <mxCell id="LZsVPGZa3EBswD9wB0Uj-86" value="Secret Managment" style="text;html=1;align=center;verticalAlign=middle;resizable=0;points=[];autosize=1;strokeColor=none;fillColor=none;" parent="LZsVPGZa3EBswD9wB0Uj-92" vertex="1">
          <mxGeometry x="5" y="18" width="120" height="30" as="geometry" />
        </mxCell>
        <mxCell id="LZsVPGZa3EBswD9wB0Uj-89" value="&lt;font&gt;App Insights &lt;br&gt;&amp;amp; Log Analytics&lt;/font&gt;" style="image;aspect=fixed;html=1;points=[];align=center;fontSize=12;image=img/lib/azure2/management_governance/Monitor.svg;labelBackgroundColor=none;fontColor=default;" parent="LZsVPGZa3EBswD9wB0Uj-92" vertex="1">
          <mxGeometry x="168" y="43.3900000000001" width="54" height="54" as="geometry" />
        </mxCell>
        <mxCell id="LZsVPGZa3EBswD9wB0Uj-90" value="End to end monitoring" style="text;html=1;align=center;verticalAlign=middle;resizable=0;points=[];autosize=1;strokeColor=none;fillColor=none;" parent="LZsVPGZa3EBswD9wB0Uj-92" vertex="1">
          <mxGeometry x="125" y="17.3900000000001" width="140" height="30" as="geometry" />
        </mxCell>
        <mxCell id="LZsVPGZa3EBswD9wB0Uj-25" value="Azure Key Vault" style="image;sketch=0;aspect=fixed;html=1;points=[];align=center;fontSize=12;image=img/lib/mscae/Key_Vaults.svg;labelBackgroundColor=none;" parent="LZsVPGZa3EBswD9wB0Uj-92" vertex="1">
          <mxGeometry x="36.98000000000002" y="43" width="56.05" height="58.39" as="geometry" />
        </mxCell>
        <mxCell id="LZsVPGZa3EBswD9wB0Uj-94" style="edgeStyle=orthogonalEdgeStyle;shape=connector;rounded=0;orthogonalLoop=1;jettySize=auto;html=1;entryX=0.962;entryY=-0.002;entryDx=0;entryDy=0;entryPerimeter=0;labelBackgroundColor=default;strokeColor=#82b366;strokeWidth=2;align=center;verticalAlign=middle;fontFamily=Helvetica;fontSize=11;fontColor=default;startArrow=classic;startFill=1;endArrow=none;fillColor=#d5e8d4;endFill=0;" parent="1" source="LZsVPGZa3EBswD9wB0Uj-84" target="LZsVPGZa3EBswD9wB0Uj-63" edge="1">
          <mxGeometry relative="1" as="geometry">
            <Array as="points">
              <mxPoint x="1231" y="260.5" />
            </Array>
          </mxGeometry>
        </mxCell>
        <mxCell id="vsX6TZBhQUKZtYb4nTTA-18" value="16" style="edgeLabel;html=1;align=center;verticalAlign=middle;resizable=0;points=[];fontSize=11;fontFamily=Helvetica;fontColor=default;" parent="LZsVPGZa3EBswD9wB0Uj-94" vertex="1" connectable="0">
          <mxGeometry x="0.0434" y="-3" relative="1" as="geometry">
            <mxPoint as="offset" />
          </mxGeometry>
        </mxCell>
        <mxCell id="LZsVPGZa3EBswD9wB0Uj-114" style="edgeStyle=orthogonalEdgeStyle;shape=connector;rounded=0;orthogonalLoop=1;jettySize=auto;html=1;entryX=1.001;entryY=0.139;entryDx=0;entryDy=0;entryPerimeter=0;labelBackgroundColor=default;strokeColor=#82b366;strokeWidth=2;align=center;verticalAlign=middle;fontFamily=Helvetica;fontSize=11;fontColor=default;startArrow=none;startFill=0;endArrow=classic;fillColor=#d5e8d4;" parent="1" source="LZsVPGZa3EBswD9wB0Uj-31" target="LZsVPGZa3EBswD9wB0Uj-63" edge="1">
          <mxGeometry relative="1" as="geometry" />
        </mxCell>
        <mxCell id="LZsVPGZa3EBswD9wB0Uj-131" value="Network Traffic Legend" style="whiteSpace=wrap;html=1;fillColor=none;dashed=1;strokeWidth=2;align=left;verticalAlign=top;rounded=1;spacingLeft=12;spacingTop=5;" parent="1" vertex="1">
          <mxGeometry x="35" y="951.5" width="241.43" height="118.5" as="geometry" />
        </mxCell>
        <mxCell id="LZsVPGZa3EBswD9wB0Uj-136" value="Public" style="endArrow=none;html=1;rounded=0;labelBackgroundColor=default;strokeColor=#b85450;strokeWidth=2;align=left;verticalAlign=middle;fontFamily=Helvetica;fontSize=15;fontColor=default;fillColor=#f8cecc;shape=connector;labelPosition=right;verticalLabelPosition=middle;spacingLeft=60;" parent="1" edge="1">
          <mxGeometry width="50" height="50" relative="1" as="geometry">
            <mxPoint x="77.15" y="1037.48" as="sourcePoint" />
            <mxPoint x="157.15" y="1037.48" as="targetPoint" />
          </mxGeometry>
        </mxCell>
        <mxCell id="LZsVPGZa3EBswD9wB0Uj-140" value="Private" style="endArrow=none;html=1;rounded=0;labelBackgroundColor=default;strokeColor=#82b366;strokeWidth=2;align=left;verticalAlign=middle;fontFamily=Helvetica;fontSize=15;fontColor=default;fillColor=#d5e8d4;shape=connector;labelPosition=right;verticalLabelPosition=middle;spacingLeft=60;" parent="1" edge="1">
          <mxGeometry width="50" height="50" relative="1" as="geometry">
            <mxPoint x="77.15" y="1007.48" as="sourcePoint" />
            <mxPoint x="157.15" y="1007.48" as="targetPoint" />
          </mxGeometry>
        </mxCell>
        <mxCell id="LZsVPGZa3EBswD9wB0Uj-151" style="edgeStyle=orthogonalEdgeStyle;shape=connector;rounded=0;orthogonalLoop=1;jettySize=auto;html=1;entryX=0.5;entryY=1;entryDx=0;entryDy=0;labelBackgroundColor=default;strokeColor=#82b366;strokeWidth=2;align=center;verticalAlign=middle;fontFamily=Helvetica;fontSize=11;fontColor=default;startArrow=none;startFill=0;endArrow=classic;fillColor=#d5e8d4;" parent="1" source="LZsVPGZa3EBswD9wB0Uj-149" target="LZsVPGZa3EBswD9wB0Uj-19" edge="1">
          <mxGeometry relative="1" as="geometry" />
        </mxCell>
        <mxCell id="LZsVPGZa3EBswD9wB0Uj-149" value="Azure VPN&lt;br&gt;Gateway" style="shadow=0;dashed=0;html=1;strokeColor=none;fillColor=#4495D1;labelPosition=center;verticalLabelPosition=bottom;verticalAlign=top;align=center;outlineConnect=0;shape=mxgraph.veeam.vpn;fontFamily=Helvetica;fontSize=11;fontColor=default;" parent="1" vertex="1">
          <mxGeometry x="375.03" y="660.8599999999999" width="66" height="44.38" as="geometry" />
        </mxCell>
        <mxCell id="LZsVPGZa3EBswD9wB0Uj-102" value="" style="html=1;overflow=block;blockSpacing=1;whiteSpace=wrap;container=0;pointerEvents=0;collapsible=0;recursiveResize=0;fontSize=23.3;fontColor=#4c535d;align=left;spacing=0;verticalAlign=top;strokeColor=#000000;strokeOpacity=100;fillOpacity=100;rounded=1;absoluteArcSize=1;arcSize=9;fillColor=#f2f3f5;strokeWidth=1;lucidId=-GtH4bNdyVb1;" parent="1" vertex="1">
          <mxGeometry x="1517.43" y="110" width="172.57" height="140" as="geometry" />
        </mxCell>
        <mxCell id="LZsVPGZa3EBswD9wB0Uj-29" value="KPMG NZ Github" style="dashed=0;outlineConnect=0;html=1;align=left;labelPosition=right;verticalLabelPosition=middle;verticalAlign=middle;shape=mxgraph.weblogos.github" parent="1" vertex="1">
          <mxGeometry x="1522.43" y="114.5" width="30" height="30" as="geometry" />
        </mxCell>
        <mxCell id="LZsVPGZa3EBswD9wB0Uj-30" value="Github Action&#xa;CICD Pipeline" style="shape=image;verticalLabelPosition=bottom;labelBackgroundColor=none;verticalAlign=top;aspect=fixed;imageAspect=0;image=https://thenounproject.com/api/private/icons/1468349/edit/?backgroundShape=SQUARE&amp;backgroundShapeColor=%23000000&amp;backgroundShapeOpacity=0&amp;exportSize=752&amp;flipX=false&amp;flipY=false&amp;foregroundColor=%23000000&amp;foregroundOpacity=1&amp;imageFormat=png&amp;rotation=0;" parent="1" vertex="1">
          <mxGeometry x="1524.93" y="134" width="69" height="69" as="geometry" />
        </mxCell>
        <mxCell id="LZsVPGZa3EBswD9wB0Uj-107" value="&lt;br&gt;Source Code" style="sketch=0;outlineConnect=0;fontColor=#232F3E;gradientColor=none;fillColor=#232F3D;strokeColor=none;dashed=0;verticalLabelPosition=bottom;verticalAlign=top;align=center;html=1;fontSize=12;fontStyle=0;aspect=fixed;pointerEvents=1;shape=mxgraph.aws4.source_code;fontFamily=Helvetica;" parent="1" vertex="1">
          <mxGeometry x="1635" y="153" width="36.54" height="50" as="geometry" />
        </mxCell>
        <mxCell id="LZsVPGZa3EBswD9wB0Uj-109" value="" style="shape=flexArrow;endArrow=classic;html=1;rounded=0;labelBackgroundColor=default;strokeColor=#82b366;strokeWidth=2;align=center;verticalAlign=middle;fontFamily=Helvetica;fontSize=11;fontColor=default;fillColor=#E6E6E6;" parent="1" edge="1">
          <mxGeometry width="50" height="50" relative="1" as="geometry">
            <mxPoint x="1622" y="181" as="sourcePoint" />
            <mxPoint x="1588.93" y="180.41000000000008" as="targetPoint" />
          </mxGeometry>
        </mxCell>
        <mxCell id="ujsevODVZxTFYwa2hvT3-1" value="KPMG AAD" style="image;aspect=fixed;html=1;points=[];align=center;fontSize=12;image=img/lib/azure2/identity/Azure_Active_Directory.svg;" parent="1" vertex="1">
          <mxGeometry x="381.81" y="296" width="52.23" height="47.75" as="geometry" />
        </mxCell>
        <mxCell id="ujsevODVZxTFYwa2hvT3-3" style="edgeStyle=orthogonalEdgeStyle;shape=connector;rounded=0;orthogonalLoop=1;jettySize=auto;html=1;entryX=0.999;entryY=0.628;entryDx=0;entryDy=0;entryPerimeter=0;labelBackgroundColor=default;strokeColor=#b85450;strokeWidth=2;align=center;verticalAlign=middle;fontFamily=Helvetica;fontSize=11;fontColor=default;startArrow=none;startFill=0;endArrow=classic;fillColor=#f8cecc;" parent="1" source="LZsVPGZa3EBswD9wB0Uj-49" target="ujsevODVZxTFYwa2hvT3-1" edge="1">
          <mxGeometry relative="1" as="geometry">
            <Array as="points">
              <mxPoint x="578" y="326" />
            </Array>
          </mxGeometry>
        </mxCell>
        <mxCell id="ujsevODVZxTFYwa2hvT3-4" style="edgeStyle=orthogonalEdgeStyle;shape=connector;rounded=0;orthogonalLoop=1;jettySize=auto;html=1;entryX=-0.009;entryY=0.174;entryDx=0;entryDy=0;entryPerimeter=0;labelBackgroundColor=default;strokeColor=#b85450;strokeWidth=2;align=center;verticalAlign=middle;fontFamily=Helvetica;fontSize=11;fontColor=default;endArrow=classic;fillColor=#f8cecc;" parent="1" source="LZsVPGZa3EBswD9wB0Uj-15" target="LZsVPGZa3EBswD9wB0Uj-49" edge="1">
          <mxGeometry relative="1" as="geometry">
            <Array as="points">
              <mxPoint x="135" y="248" />
            </Array>
          </mxGeometry>
        </mxCell>
        <mxCell id="8GQGeq9-EAVRCGhmkSiJ-7" style="edgeStyle=orthogonalEdgeStyle;rounded=0;orthogonalLoop=1;jettySize=auto;html=1;strokeColor=#82b366;strokeWidth=2;align=center;verticalAlign=middle;fontFamily=Helvetica;fontSize=11;fontColor=default;labelBackgroundColor=default;startArrow=none;startFill=0;endArrow=classic;fillColor=#d5e8d4;" parent="1" target="LZsVPGZa3EBswD9wB0Uj-22" edge="1">
          <mxGeometry relative="1" as="geometry">
            <Array as="points">
              <mxPoint x="936" y="596" />
              <mxPoint x="936" y="596" />
            </Array>
            <mxPoint x="866" y="596" as="sourcePoint" />
          </mxGeometry>
        </mxCell>
        <mxCell id="8GQGeq9-EAVRCGhmkSiJ-8" style="edgeStyle=orthogonalEdgeStyle;rounded=0;orthogonalLoop=1;jettySize=auto;html=1;strokeColor=#82b366;strokeWidth=2;align=center;verticalAlign=middle;fontFamily=Helvetica;fontSize=11;fontColor=default;labelBackgroundColor=default;startArrow=none;startFill=0;endArrow=classic;fillColor=#d5e8d4;" parent="1" source="8GQGeq9-EAVRCGhmkSiJ-4" target="LZsVPGZa3EBswD9wB0Uj-36" edge="1">
          <mxGeometry relative="1" as="geometry">
            <Array as="points">
              <mxPoint x="937" y="703" />
              <mxPoint x="937" y="703" />
            </Array>
          </mxGeometry>
        </mxCell>
        <mxCell id="8GQGeq9-EAVRCGhmkSiJ-12" style="edgeStyle=orthogonalEdgeStyle;rounded=0;orthogonalLoop=1;jettySize=auto;html=1;strokeColor=#82b366;strokeWidth=2;align=center;verticalAlign=middle;fontFamily=Helvetica;fontSize=11;fontColor=default;labelBackgroundColor=default;startArrow=none;startFill=0;endArrow=classic;fillColor=#d5e8d4;" parent="1" target="8GQGeq9-EAVRCGhmkSiJ-11" edge="1">
          <mxGeometry relative="1" as="geometry">
            <Array as="points">
              <mxPoint x="937" y="492" />
              <mxPoint x="937" y="492" />
            </Array>
            <mxPoint x="866" y="492" as="sourcePoint" />
          </mxGeometry>
        </mxCell>
        <mxCell id="8GQGeq9-EAVRCGhmkSiJ-4" value="&lt;div&gt;API Service&lt;br&gt;&lt;/div&gt;" style="rounded=0;whiteSpace=wrap;html=1;fontFamily=Helvetica;fontSize=11;fontColor=default;labelBackgroundColor=none;align=center;labelPosition=center;verticalLabelPosition=top;verticalAlign=bottom;" parent="1" vertex="1">
          <mxGeometry x="695" y="380" width="171" height="408" as="geometry" />
        </mxCell>
        <mxCell id="LZsVPGZa3EBswD9wB0Uj-40" value="&lt;div&gt;Serverless&lt;/div&gt;&lt;div&gt;Backend&lt;br&gt;&lt;/div&gt;" style="image;aspect=fixed;html=1;points=[];align=center;fontSize=12;image=img/lib/azure2/compute/Function_Apps.svg;labelBackgroundColor=none;" parent="1" vertex="1">
          <mxGeometry x="752.24" y="420.99999999999994" width="56.53" height="49.88" as="geometry" />
        </mxCell>
        <mxCell id="LZsVPGZa3EBswD9wB0Uj-21" value="App Services&lt;br&gt;Backend" style="image;aspect=fixed;html=1;points=[];align=center;fontSize=12;image=img/lib/azure2/containers/App_Services.svg;labelBackgroundColor=none;spacingTop=12;" parent="1" vertex="1">
          <mxGeometry x="752.2400000000001" y="538" width="51" height="51" as="geometry" />
        </mxCell>
        <mxCell id="8GQGeq9-EAVRCGhmkSiJ-6" style="edgeStyle=orthogonalEdgeStyle;rounded=0;orthogonalLoop=1;jettySize=auto;html=1;entryX=0.053;entryY=0.199;entryDx=0;entryDy=0;entryPerimeter=0;strokeColor=#82b366;strokeWidth=2;align=center;verticalAlign=middle;fontFamily=Helvetica;fontSize=11;fontColor=default;labelBackgroundColor=default;startArrow=none;startFill=0;endArrow=classic;fillColor=#d5e8d4;" parent="1" source="LZsVPGZa3EBswD9wB0Uj-19" target="8GQGeq9-EAVRCGhmkSiJ-4" edge="1">
          <mxGeometry relative="1" as="geometry">
            <Array as="points">
              <mxPoint x="408" y="461" />
            </Array>
          </mxGeometry>
        </mxCell>
        <mxCell id="8GQGeq9-EAVRCGhmkSiJ-9" value="" style="edgeStyle=orthogonalEdgeStyle;shape=connector;rounded=0;orthogonalLoop=1;jettySize=auto;html=1;labelBackgroundColor=default;strokeColor=#82b366;strokeWidth=2;align=center;verticalAlign=middle;fontFamily=Helvetica;fontSize=11;fontColor=default;startArrow=none;startFill=0;endArrow=classic;fillColor=#d5e8d4;" parent="1" source="LZsVPGZa3EBswD9wB0Uj-15" target="LZsVPGZa3EBswD9wB0Uj-143" edge="1">
          <mxGeometry relative="1" as="geometry">
            <mxPoint x="160" y="683" as="sourcePoint" />
            <mxPoint x="375" y="683" as="targetPoint" />
          </mxGeometry>
        </mxCell>
        <mxCell id="8GQGeq9-EAVRCGhmkSiJ-10" style="edgeStyle=orthogonalEdgeStyle;rounded=0;orthogonalLoop=1;jettySize=auto;html=1;strokeColor=#82b366;strokeWidth=2;align=center;verticalAlign=middle;fontFamily=Helvetica;fontSize=11;fontColor=default;labelBackgroundColor=default;startArrow=none;startFill=0;endArrow=classic;fillColor=#d5e8d4;" parent="1" source="LZsVPGZa3EBswD9wB0Uj-143" target="LZsVPGZa3EBswD9wB0Uj-149" edge="1">
          <mxGeometry relative="1" as="geometry">
            <Array as="points">
              <mxPoint x="264" y="686" />
            </Array>
          </mxGeometry>
        </mxCell>
        <mxCell id="LZsVPGZa3EBswD9wB0Uj-143" value="" style="shape=image;verticalLabelPosition=bottom;labelBackgroundColor=default;verticalAlign=top;aspect=fixed;imageAspect=0;image=data:image/png,iVBORw0KGgoAAAANSUhEUgAAANwAAABKCAYAAADQZTrfAAAABGdBTUEAALGPC/xhBQAAACBjSFJNAAB6JgAAgIQAAPoAAACA6AAAdTAAAOpgAAA6mAAAF3CculE8AAAABmJLR0QA/wD/AP+gvaeTAAAS/klEQVR42u1deXwV1dl+3pm5uUlISGSLosgialkqIrhg4N6Zm0hEFLU0LtXWutSKpmpxwd2I1vqpBavtp1TEajcxltbtQ5bcOwmx4IKifhRc2AQrJIFAFpLcO3Pe/pEIN3fNDdlznt8vf+TcmbO+z7udMzMECYlugor/OTk9pd4/ksEDFEIGs1LHZNsgLg8kabsG3LX1QE8fI8lllugqNBQeP8oi5QIiuJhxJoBj49zyNQMfg+AVpCzPuH/rl5JwEhIxwE9k9TtYn3oFM64HeNIR1vYhE15MS2l4ie7YUycJJyHxHTUKh6bWKUkFYL4DoEHtXP0+AE/2S7eeorm76iXhJPo06h4aPoNBvwcwsoOb2kngOf0e3PG2JJxE37NqC45Lqa3WFhDhhs5tGEv69bcKuqO1k4ST6BirVjhsKJP6JoDTuqgLGxRVnZV635adknASvRoHHh51oipEMYBhXdyVnYIxvX/h9s2ScBK9Ek2pfioB6Lhu0qX/aCymJRd+vVUSTqJXoapwRKaDsBbA97qXG8dfWWyfmVG4a19X90WRYiLRHmAGOYj+3N3IBgAMGq0q2l+4sOvlXRJOol1QO39kAcAzu69GwLl1yoibpUsp0eNxsHD0cYKszQD6dfeuaiy+35XxnLRwEkcMQdbjPYBsAJBqk/KYtHASPRY1848fR6x82oOUNxPz5H6FOz7qisY1KTISLaSRQbXzh+sEygNhIpgGAoIB2gLCBkB5O+2BrZ8d0thM83qYp0RMdDuAH0kLJ9GlRKubP/xHDJpPwKg4YrOeIO4PJPE6za98AyClhw03wKwel164pVwSTqLTsf/Xxx+l+ZWlAM5J8NYvAJzUIxUM4Zb0B7Y/3dntyqRJH0dt4YijNb+ytg1kQ08lW5NfiYu6ol1JuL7sRi44LgWE1wGc3AeHfzY/kdXpmVWZNOnL1q1avYcIZ/TR4TvFT8s28+2jnw1451Rg/+YAM9UoJPZZNm9P/nfpDiqEkDGcRLugebP6SwDJfXH8ytFjkXL92+DKT2CV3hJxikC8lpiKbdhLk2eXtctmuXQp+6o7SfbVfZVsAKBNvBQAIHavi3ZJKphyGHhUgfqVf5mnzHrNdR7zkRkpSbi+Sjhwfp8dvOaENn5W0zzsXts6T5DtbEH0trXi8m+sDQsukYSTaD3ZCoemAhjbZ/n2vTxQSib44G5w9fbE5q7uP8eILa//rXGZ/gj7dE0STiIuaqGNAKD2WcKdmt9s3da12VAR872BKl7Fb009ShJOIvaiKz3uZEj7jX3QCVBHnt1EuD3vH6lfrgca1VJ+VT9aEk4iKgTQ0FfH7nDfAlCT2IvKT9ujyvEBld/hV3MzJOEkIiItTWxt4l3fgjoqG9q48w8XBGrbq+oJftW/tDVPlMuN7z6A+kdGDhc2n8uMs0AYU1eDLPSxPVhKz4LzwidbDtuZCTTub5/6QXnW9913ASWPxr5Ootei5qHhBkG5F2BPX15rSslE8lWvQBnS8gSb/f58iF3e9myqUdjKhORLfJ9LC9eHcODhUScqLB5vOqDLfXoulAEj4Lx8CZSB4W9ZV066DGKXD+04R05SxEIA50kL10dQVzhyFhP/FT3jlQcdyDQVjtOvQpLnNsCRGvUysf1t2B8vANhux7bFmUkXr3lfWrhejtr5I25l5ifRh/fYqN9AaGNnwjHlOlBm/Bc/KyNmgjJGw974B3D5R+1j7Vi5DcCl0sL1brL9FIwXO1aaFZAzPUhdJwGO8C09ciQDqjO83NkPUMJ1ASX3jyCKBCT3j9AFDXD2C7tWOWoYlKyxUIaOB6iN+qZxP/jAVnCgGvDXANZBsFUPWAeBwEEgUAv2HwBXfmqD7ViNNDic9lA6v6xKWrheiIPzR5wpGM92tIuW8rM3oWSN6b0T6cwEDTktrhUKrLjsa9TtjvXpreRAo3o+gD9JwvUy8NOjnXVV1ivo6JP/QiCwdjEofchhu6IlA1q4JUNSKkh1RBDDCJaMCOQMt2RQNVBShNhLSwaFtulIAaUNPrLxWfXgmu3gut1N+3OHrFuzhfPXNP3fUIk4ZPtuXDmScL0xSVJl3QBgRCdQG9any7p37DbufDiy54DSs1qpRAIQX6+E2FkMrtwAcHueBeCzZAzXy1BeOC4tleq2ABgiZ+NwPOic/QzUE1yxubbjHdgbnwca9nZUVwIOuzKNLtnob+GZyyXquein1F4iyRZiVxqq0bD0eojKLVFoUAd77T2w1z/WkWQDAEeDY/DQsFBYLlEPFi5QvpyFSPFYIwJl/xte3rgfVkkBxLf/6pRuqEwZknC9hWyF0Ih5qpyJyLC3lKDFnprdAOtfd4Ort3XiIlmqJFwvQY068gQGpcmZiCLrdXsBq/Ew3/5/EbhqU+caWtuxRxKul0ARPELOQqwJ0pr+APC+TRBb/tnpnE+pOlAuCddbNDhTupyFGHw7ZvwhwtmblqALDnFvo5+vD0jC9RqJkmsXC+qo5vA2UAsuX9/5HSC8F3nZJHomhKiUkxCDcCOzm93Jje28od3a9eGIhJMnTXoobCd/rPlpO4CMDmuEVJVIUUDUAQckOqBOaj7I4Uw/oA495RkANgsri46eclrb61Q0UMsT11z7zVau3rYzBtsCSUJZKqVUQkJCQkJCQkJCQkJCQkJCQkJCQkJCok8j6l5ITk7OQNu2pzErxxCJ/kRUxcxfpKenv//mm28ebE3luq4fDWB8cJkQ4vPS0tKd7dF5l8s1UlG0PEBMAOgogJiIqwB8SEQrvF7vN62pJz8/X62oqDCCyxRF2ef1ej+KMq7JADKDy0zTLEaU80M5OTljbdseGqX5/Zqm7auqqtq5fn34UaB4iFN3LJimaVqhhbm5uRmWZZ0eXKaq6tfFxcVftKfg6bp+C4JeC0FEXF1dvTDROXC5XGMURTk2zmX7VVXdWVxcvKe19RqGMYGZE35vQyAQeO/dd9+tCRnrCFVVk4qLi78I2/h2u3OmEIkHLUucQ0QKEQMgMDfxs6amtlbXjZdUVXk43gCIyMOMv7QUZO0XAH53JIvl8XhOYOZfC4HZACuH9QY39xNg5oCuGy+rqnJvvH4eOHAgGaBVIYphFYDpUW5ZANC0ENJqRUVFEV9uaNtiLkDXRmvfsmykpfU/qOv6e0T0SkNDw5/Wrl1b35q5iFd3NKSkJGcAqA7vizUmdC4sSywAcFt7kc0wDDczngouYwbS0jJ2AvhbInUpijYX4OtaMU/QdeMTgBeapvky4hyuFALziWhWomNzOBwTAWwIItuVzDTYtu19hmHoSrCWNwzjUSLxLoA8oqjHvtIA3GTbYqPb7ZnR2SbZMIyZQvCHzMiP0UcAcAC41rbFerc75/Ru72oQUgEymLHI6UzeZhjGeb3VrWKmgii/FHRw0xMA+qPbbbyVnZ3dWYe/BxLx8QBOBZB8SGArKioXMeNutP49JwOJ+HXDMGZ11kK53TnTmPH3UHcuDo4lEss9Hs8JPUgms5jxltvtmdPbyOZyuYYBfFEUpXO2YRiTOkG5nadpSb/rnBErKczKVgCfAMjUms3eTQCujayN4AewnyjiuzMczHjZ5XJNLC0t7dBHabOzs9OJRBGACO9lwzoirBICTIQcANmhysG2+a8AzkI3eNk+MwSA7c2L7wSQhfBzrUTEz+i6vsk0TTPBJnYyI2YsVF9f3yWfqyJSb0CMM7zN1u/qTiDdj10u1yOlpaVfJrBubygKGuNcs7+lO+5f5HA4fgzQAE3TFmt5eXkDGhr88yMcJa0A+A4iLDVNs2H69OlD/H7rZoDnhUxYBpH6CIArOnKCNC3p9mbBDEYjM11dUuIN9vsf1HX9hwC9DBz+0icRzjAM42Kfz9cd3vVWW1LiO2Rx8/LyBjQ2Ns5hpgeIkBScrwDoKQATE1EUQth5paWlm9DNoOt6MoCfxRHry6ZNm3bnmjVrKo5ApU2xLOtzAEhKSupv2ziDiH8DIPjd56QoynkAftt6kvK1Pp+Z0FMaZWVlVQCePmTv/H7/lUQYEHJdlaoqU03TfMk0zQYAWLlyZblpeu8D+PII9V6Wk5OT1cEa6ScRyuaGkO279NtrzHRLhED4CnRDrFixYp9pmr8C6MoIxJrgdudM7iUe5aUABodYhNDsZ7KiaNcdSSOqqlaXlZVVlZWVVXm93h0lJd4igOdGSOod29kToDHzReFhGz8ULQ1smuZrbrcxX1EwJkjwYVkYBWBPR3TSMIyTmcNedvrtoEGDFkW7Z8iQgUsqKiofAnBMUD893VkaS0q8RW63cR1Ry+yooohzAHyQQOYuz+32jI+uvMQq0zT3d4FDGZoUsZjtiwB1HRH6B63THF3Xn4i0bdF2hU3MHOa+7kuwltd03YjhqvNDpmmWxSEcnRzqTjocjqLYguF7sDOXSQjleCIR6it/EC0NDwBFRUW22218THSYcAAyL7jggtTW7iN2DegtgKe3HCsPS6wOXhjnabMWqetOSnhNAcTk0LGWlpZucruNPwO4MeiHYUR0IYC/H2m7ubm5GYGAcDHzb8MVE1YmOow4pI77fQcNwKDQwszMzD3dSgTJ7hdqhYmY4t9HItRDq6mpSQLQbQlHJKojfEkmped7k6IgQkz0XJNCsZ8jUm8MUai/aCvhbFu8qutGAwAEAvaYpi2XMLwT7WBDR0IBEBYE7t27d0R3WipmNYICoDN0Xddi38cnhSziwUiuVEZGRgQ3gVJjZNJC4yy7qKionbJ+ysQIma89PZlq06ZNOwbAD0OKt/h87lUAUFpa+hmAUFfMnZOTc0obmxwHYBKASVHIttm2rWu6Yi40ImwCMDREUK8C8ECkGyZNmuRIT09/nLmlQNp24K7mjExHWLjPAGpAyy/EZBHRjcEZoJC470xmnBSSZPkgivvp13WjDi2/Gjo6huVMD7aczNiLdthuaBJMviqCJfgoMQWFVwHsj/672NuZQqaq6vVAi+wrAGS53SVfAodO1A0IDyVEAYDr21maFluW/862yCoRJquqWhU9dlb2tIZwbzAjJ2TB7tR13Rtp/6d///6/YsatITHCho4iW3OiplbX9VUAXdByQfCEruvVpmn+Mbi8aQsj8EKECVsWQ0i3ECFYo2YZhvGD0G0EwzAmMfOpIfUe8R6kx+MZbtu8DOGb+vWapr2TGOHswu6yLZCfn59UUVH58wg/pREhLXbsjiumTp06rw2ytYII1cx0KsAnhtTa0FZZZeYdq1evPqKXN2mqqr5kWfb9IbGcE6B3dN3zlKrSy5qm7Q4EAuOF4LnMuDCCID+cgC9/sq7rudEnWexpdjFCtccjQvD5CApwmvas6EVd99wMiBUAdgPKML8/8BOEpJ8BfJOWlrY4htXyAXxKCAmXGIYxyLbt5UlJSdW2becy4xmEBVnsS1BTOnVdn3dY6dE4IXgWUfh3uZmxcPXq1Qe6Nq7E8FhrpihKtdfrjfhN6/LyvbNDEleJtJuqaUnXAngyMYuqzC0uLv53c3b7YwTtxwJ0k8fj+YfX6/Um3h9y67oeby02m6a5KyrhVq9efUDX9bsBej7kNyfA82yb59m2P5b7ssw0E9lMpgIABTHcjyIAl4SWe73e93Vd/32E1DIAnghQc+zDkfooFAU3xcpOEvGzzChAy+9jZzBjkaKosKyoCVELwAsJrp0ToMeC+hdtbj9yOh2PdgNDNRug2dGVJH8IIMp51YjnI7cxhy8UERxouTkNgG/Mz89fGCsjHQ0+n+9zXdfvByiYsCQEL5kxY8Ypy5cvr07QVX8t/slHmgPguVhZSpimuVjX9QmRhTkm3iUKjzk6EL9kxvFESOT8JgO43efzvR5vcQzDeLz5PGkii7CgpMT8qgPG+qEQ1qyVK311PTVZ0uR+4+yQ4vWm6ZscPT/QfxuA4A3pkZWVlTMBvNGWPgwePPip8vLKHxC16MfwgwcbFiLKccaOzlJ+FyfdzIw7mzV2a4T4hcbGhnNM06ztrM6apmmVlLgvZsZ8IPaZtmbsAXhWSYlvYes0ovs+gH7T2gQIEZ4fMmTQPe08zCqACwcPHpS9Zs2ab3tydjLSUwFEkZNcAND0LBw/GyF2avNTBEVFRbai4BoA9SH9uMYwjJmdnqUMHldJie8Jl8v1T0VR7wVwYYQAvo4I/8fMC0zTXNeK+muZsTXBPpXH/rlQlJTgwdzc3Bds2y5gxgy0fMi1EcBaIvwjLS1tcWKb3IXCNHG7x+N5VQj8EuBzI8xBAGATwAKfz2xlMoMqmXlrFNLWo2lrZnNzvW8lpsTC69Y0zX8EMtGQ6JoRIexB3+zs7HRmPgM4XBcRqpOTk2O+INW27T+oquMqZlaDYqdRLpdrWOQHl0UlM20NqcMf6r243Z55AN8acvPdU6ZM8UZ69lBRsEeIhGUXisIx3dSoDqmu65qqqmMtC1kAa0Ti25qamo1teSq5M+L6qVOnZqanp9uJ+uVxMmxqZWXlaCI6lpkdRFRRX1+/qbUPh0pIhOK/I0d4+yXDDo4AAAAldEVYdGRhdGU6Y3JlYXRlADIwMjItMDUtMTlUMDI6MjM6MzErMDA6MDC9ZFyLAAAAJXRFWHRkYXRlOm1vZGlmeQAyMDIyLTA1LTE5VDAyOjIzOjMxKzAwOjAwzDnkNwAAAABJRU5ErkJggg==;" parent="1" vertex="1">
          <mxGeometry x="169" y="484.9999999999999" width="119.91" height="40.33" as="geometry" />
        </mxCell>
        <mxCell id="8GQGeq9-EAVRCGhmkSiJ-11" value="File Storage" style="image;aspect=fixed;html=1;points=[];align=center;fontSize=12;image=img/lib/azure2/storage/Storage_Accounts.svg;fontFamily=Helvetica;fontColor=default;labelBackgroundColor=none;" parent="1" vertex="1">
          <mxGeometry x="1136.62" y="465.88" width="65" height="52" as="geometry" />
        </mxCell>
        <mxCell id="0CerRht4iovh5amj-vdO-58" value="&lt;div&gt;Container App&lt;/div&gt;&lt;div&gt;Backend&lt;br&gt;&lt;/div&gt;" style="image;aspect=fixed;html=1;points=[];align=center;fontSize=12;image=img/lib/azure2/other/Container_App_Environments.svg;" parent="1" vertex="1">
          <mxGeometry x="748.27" y="665.12" width="60.5" height="60.5" as="geometry" />
        </mxCell>
        <mxCell id="g83Yyvn31rJ2K5Ho1h2G-1" value="CodeDeploy&amp;nbsp;&lt;div&gt;Storage&lt;/div&gt;" style="image;aspect=fixed;html=1;points=[];align=center;fontSize=12;image=img/lib/azure2/storage/Storage_Accounts.svg;fontFamily=Helvetica;fontColor=default;labelBackgroundColor=none;" vertex="1" parent="1">
          <mxGeometry x="1136.62" y="371" width="65" height="52" as="geometry" />
        </mxCell>
      </root>
    </mxGraphModel>
  </diagram>
</mxfile>
